<?xml version="1.0" encoding="utf-8"?>
<!-- Generator: Adobe Illustrator 19.1.0, SVG Export Plug-In . SVG Version: 6.00 Build 0)  -->
<svg version="1.1" id="Layer_1" xmlns="http://www.w3.org/2000/svg" xmlns:xlink="http://www.w3.org/1999/xlink" x="0px" y="0px"
	 viewBox="0 0 189.3 78.5" style="enable-background:new 0 0 189.3 78.5;" xml:space="preserve">
<metadata><?xpacket begin="﻿" id="W5M0MpCehiHzreSzNTczkc9d"?>
<x:xmpmeta xmlns:x="adobe:ns:meta/" x:xmptk="Adobe XMP Core 5.6-c067 79.157747, 2015/03/30-23:40:42        ">
   <rdf:RDF xmlns:rdf="http://www.w3.org/1999/02/22-rdf-syntax-ns#">
      <rdf:Description rdf:about=""/>
   </rdf:RDF>
</x:xmpmeta>
                                                                                                    
                                                                                                    
                                                                                                    
                                                                                                    
                                                                                                    
                                                                                                    
                                                                                                    
                                                                                                    
                                                                                                    
                                                                                                    
                                                                                                    
                                                                                                    
                                                                                                    
                                                                                                    
                                                                                                    
                                                                                                    
                                                                                                    
                                                                                                    
                                                                                                    
                                                                                                    
                           
<?xpacket end="w"?></metadata>
<style type="text/css">
	.st0{fill:#0099D8;}
	.st1{fill:none;stroke:#8C8C8C;stroke-width:0.2;}
	.st2{fill:none;}
</style>
<g>
	<g>
		<path class="st0" d="M19,50.8c0,0.1,0,0.2,0.1,0.3c0,0,0.1,0.1,0.2,0.1v0.1H18v-0.1c0.1,0,0.2,0,0.2-0.1c0,0,0.1-0.1,0.1-0.3v-4.2
			c0-0.1,0-0.2-0.1-0.3c0,0-0.1-0.1-0.2-0.1v-0.1h3.6c0.5,0,0.9,0.1,1.1,0.4c0.2,0.3,0.4,0.6,0.4,1.1c0,0.5-0.1,0.8-0.4,1
			c-0.2,0.2-0.6,0.4-1,0.4l1.3,2c0.1,0.1,0.1,0.1,0.1,0.2c0,0,0.1,0,0.2,0v0.1H22v-0.1c0.1,0,0.1,0,0.2,0s0,0,0-0.1s0-0.1,0-0.1
			S22,50.8,22,50.8L20.9,49H19V50.8z M21.5,48.3c0.3,0,0.5-0.1,0.6-0.2s0.2-0.3,0.2-0.6c0-0.3-0.1-0.5-0.2-0.6
			c-0.1-0.1-0.4-0.2-0.7-0.2H19v1.6H21.5z"/>
		<path class="st0" d="M28.5,46.1c0.5,0,0.9,0.1,1.2,0.2c0.4,0.1,0.7,0.3,0.9,0.6c0.3,0.2,0.5,0.5,0.6,0.8c0.1,0.3,0.2,0.7,0.2,1
			c0,0.4-0.1,0.7-0.2,1c-0.1,0.3-0.3,0.6-0.6,0.8c-0.3,0.2-0.6,0.4-0.9,0.5c-0.4,0.1-0.8,0.2-1.2,0.2s-0.9-0.1-1.2-0.2
			c-0.4-0.1-0.7-0.3-0.9-0.5c-0.3-0.2-0.5-0.5-0.6-0.8c-0.1-0.3-0.2-0.7-0.2-1c0-0.4,0.1-0.7,0.2-1c0.1-0.3,0.3-0.6,0.6-0.8
			c0.3-0.2,0.6-0.4,0.9-0.6C27.6,46.1,28,46.1,28.5,46.1z M28.5,46.7c-0.3,0-0.6,0.1-0.9,0.2c-0.3,0.1-0.5,0.2-0.7,0.4
			c-0.2,0.2-0.3,0.4-0.4,0.6c-0.1,0.2-0.2,0.5-0.2,0.8c0,0.3,0,0.5,0.2,0.8c0.1,0.2,0.2,0.5,0.4,0.6c0.2,0.2,0.4,0.3,0.7,0.4
			c0.3,0.1,0.6,0.2,0.9,0.2s0.6-0.1,0.9-0.2s0.5-0.2,0.7-0.4c0.2-0.2,0.3-0.4,0.4-0.6c0.1-0.2,0.2-0.5,0.2-0.8
			c0-0.3-0.1-0.5-0.2-0.8c-0.1-0.2-0.2-0.5-0.4-0.6c-0.2-0.2-0.4-0.3-0.7-0.4S28.8,46.7,28.5,46.7z"/>
		<path class="st0" d="M34.2,46.6c0-0.1,0-0.2-0.1-0.3c0,0-0.1-0.1-0.2-0.1v-0.1h3.2c0.7,0,1.1,0.1,1.4,0.4c0.3,0.2,0.4,0.6,0.4,1.1
			c0,0.1,0,0.2,0,0.3c0,0.1-0.1,0.2-0.1,0.3c-0.1,0.1-0.1,0.2-0.3,0.2s-0.2,0.1-0.4,0.1v0c0.3,0.1,0.5,0.2,0.7,0.4
			c0.2,0.2,0.3,0.5,0.3,0.9c0,0.5-0.2,0.9-0.5,1.1c-0.3,0.2-0.8,0.4-1.5,0.4h-3.2v-0.1c0.1,0,0.2,0,0.2-0.1c0,0,0.1-0.1,0.1-0.3
			V46.6z M37.1,48.3c0.2,0,0.4,0,0.5,0c0.1,0,0.2-0.1,0.3-0.1c0.1-0.1,0.1-0.1,0.2-0.2c0-0.1,0-0.2,0-0.3c0-0.2-0.1-0.4-0.2-0.6
			c-0.2-0.1-0.4-0.2-0.8-0.2H35v1.5H37.1z M37.3,50.6c0.2,0,0.4,0,0.5,0c0.1,0,0.2-0.1,0.3-0.2s0.1-0.2,0.2-0.3s0-0.2,0-0.4
			c0-0.3-0.1-0.5-0.2-0.7c-0.2-0.1-0.4-0.2-0.8-0.2H35v1.7H37.3z"/>
		<path class="st0" d="M42.2,51.2c0.1,0,0.2,0,0.2-0.1c0,0,0.1-0.1,0.1-0.3v-4.2c0-0.1,0-0.2-0.1-0.3c0,0-0.1-0.1-0.2-0.1v-0.1h1.3
			v0.1c-0.1,0-0.2,0-0.2,0.1c0,0-0.1,0.1-0.1,0.3v4.2c0,0.1,0,0.2,0.1,0.3c0,0,0.1,0.1,0.2,0.1v0.1h-1.3V51.2z"/>
		<path class="st0" d="M50.9,47.6C50.9,47.6,50.9,47.5,50.9,47.6l0-0.2c0,0-0.1-0.1-0.2-0.2c-0.1-0.1-0.2-0.1-0.4-0.2
			c-0.2-0.1-0.4-0.1-0.6-0.2c-0.2-0.1-0.4-0.1-0.6-0.1c-0.3,0-0.6,0.1-0.9,0.2c-0.3,0.1-0.5,0.2-0.7,0.4c-0.2,0.2-0.3,0.4-0.4,0.6
			c-0.1,0.2-0.1,0.5-0.1,0.8c0,0.3,0,0.5,0.1,0.8c0.1,0.2,0.2,0.4,0.4,0.6c0.2,0.2,0.4,0.3,0.6,0.4c0.2,0.1,0.5,0.1,0.8,0.1
			c0.3,0,0.6,0,0.8-0.1c0.2-0.1,0.4-0.1,0.6-0.2c0.2-0.1,0.3-0.2,0.4-0.3s0.1-0.2,0.1-0.2c0-0.1,0-0.2,0-0.2l0.1-0.1l0.8,1.1
			l-0.1,0.1c-0.1,0-0.1-0.1-0.1-0.1s-0.1,0-0.1,0c-0.1,0-0.2,0-0.3,0.1c-0.1,0.1-0.3,0.2-0.5,0.3c-0.2,0.1-0.4,0.2-0.7,0.2
			c-0.3,0.1-0.6,0.1-1,0.1c-0.4,0-0.8-0.1-1.1-0.2c-0.3-0.1-0.6-0.3-0.9-0.5c-0.3-0.2-0.5-0.5-0.6-0.8c-0.1-0.3-0.2-0.7-0.2-1.1
			s0.1-0.8,0.2-1.1c0.2-0.3,0.4-0.6,0.6-0.8c0.3-0.2,0.6-0.4,0.9-0.5c0.4-0.1,0.7-0.2,1.1-0.2c0.3,0,0.6,0,0.8,0.1
			c0.2,0,0.4,0.1,0.7,0.2c0.2,0.1,0.3,0.1,0.4,0.2c0.1,0,0.2,0.1,0.2,0.1c0.1,0,0.1,0,0.2-0.1l0.1,0L51,47.7L50.9,47.6z"/>
		<path class="st0" d="M59.5,50.8c0,0.1,0,0.2,0.1,0.3c0,0,0.1,0.1,0.2,0.1v0.1h-1.3v-0.1c0.1,0,0.2,0,0.2-0.1c0,0,0.1-0.1,0.1-0.3
			v-1.9h-3.5v1.9c0,0.1,0,0.2,0.1,0.3c0,0,0.1,0.1,0.2,0.1v0.1h-1.3v-0.1c0.1,0,0.2,0,0.2-0.1c0,0,0.1-0.1,0.1-0.3v-4.2
			c0-0.1,0-0.2-0.1-0.3c0,0-0.1-0.1-0.2-0.1v-0.1h1.3v0.1c-0.1,0-0.2,0-0.2,0.1c0,0-0.1,0.1-0.1,0.3v1.6h3.5v-1.6
			c0-0.1,0-0.2-0.1-0.3c0,0-0.1-0.1-0.2-0.1v-0.1h1.3v0.1c-0.1,0-0.2,0-0.2,0.1c0,0-0.1,0.1-0.1,0.3V50.8z"/>
		<path class="st0" d="M62,51.2c0.1,0,0.2,0,0.3-0.1c0-0.1,0.1-0.1,0.1-0.2l1.8-4.2c0-0.1,0.1-0.2,0.1-0.2s0-0.1-0.1-0.1
			c0,0-0.1,0-0.2-0.1v-0.1h1.9v0.1c-0.1,0-0.1,0-0.2,0c-0.1,0-0.1,0.1-0.1,0.1c0,0,0,0.1,0,0.1s0,0.1,0.1,0.1l2,4.3
			c0,0.1,0.1,0.1,0.1,0.2s0.1,0.1,0.3,0.1v0.1h-1.5v-0.1c0.1,0,0.2,0,0.3,0s0.1-0.1,0.1-0.1c0-0.1,0-0.1,0-0.1s0-0.1,0-0.1l-0.5-1
			h-2.8l-0.4,0.9c0,0.1-0.1,0.1-0.1,0.2S63,51,63,51c0,0,0,0.1,0.1,0.1s0.1,0,0.2,0v0.1H62V51.2z M63.8,49.1h2.3l-1.2-2.5L63.8,49.1
			z"/>
		<path class="st0" d="M75.6,49.7c0,0.3-0.1,0.6-0.2,0.8c-0.2,0.2-0.4,0.4-0.6,0.5c-0.2,0.1-0.5,0.2-0.8,0.3s-0.6,0.1-0.9,0.1
			s-0.6,0-0.9-0.1c-0.3,0-0.6-0.1-0.8-0.3c-0.2-0.1-0.5-0.3-0.6-0.5c-0.2-0.2-0.2-0.5-0.2-0.8v-3c0-0.1,0-0.2,0-0.3
			c0,0-0.1-0.1-0.2-0.1v-0.1h1.2v0.1c-0.1,0-0.2,0-0.2,0.1c0,0,0,0.1,0,0.3v2.9c0,0.4,0.2,0.8,0.5,0.9c0.3,0.2,0.8,0.3,1.3,0.3
			c0.6,0,1-0.1,1.3-0.3c0.3-0.2,0.5-0.5,0.5-0.9v-2.9c0-0.1,0-0.2,0-0.3c0,0-0.1-0.1-0.2-0.1v-0.1h1.2v0.1c-0.1,0-0.2,0-0.2,0.1
			c0,0,0,0.1,0,0.3V49.7z"/>
		<path class="st0" d="M79.2,46.6c0-0.1,0-0.2-0.1-0.3c0,0-0.1-0.1-0.2-0.1v-0.1h2.8c0.5,0,0.9,0.1,1.2,0.2c0.3,0.1,0.6,0.3,0.8,0.5
			c0.2,0.2,0.4,0.5,0.5,0.8s0.2,0.7,0.2,1c0,0.4-0.1,0.7-0.2,1s-0.3,0.6-0.5,0.8c-0.2,0.2-0.5,0.4-0.8,0.5c-0.3,0.1-0.7,0.2-1.2,0.2
			h-2.8v-0.1c0.1,0,0.2,0,0.2-0.1c0,0,0.1-0.1,0.1-0.3V46.6z M81.5,50.6c0.4,0,0.7-0.1,0.9-0.2c0.3-0.1,0.5-0.2,0.6-0.4
			c0.2-0.2,0.3-0.4,0.4-0.6c0.1-0.2,0.1-0.5,0.1-0.7c0-0.3,0-0.5-0.1-0.7c-0.1-0.2-0.2-0.4-0.4-0.6c-0.2-0.2-0.4-0.3-0.6-0.4
			c-0.3-0.1-0.6-0.2-0.9-0.2h-1.7v3.8H81.5z"/>
		<path class="st0" d="M97.2,48.4c0-0.1,0-0.2,0-0.2s-0.1-0.1-0.1-0.1c-0.1,0-0.2,0-0.3,0.1c-0.1,0.1-0.2,0.2-0.3,0.4
			c-0.1,0.1-0.2,0.3-0.3,0.5c-0.1,0.2-0.2,0.4-0.2,0.5c0.1,0.1,0.2,0.3,0.3,0.4c0.1,0.1,0.2,0.2,0.3,0.3c0.1,0.1,0.2,0.1,0.3,0.2
			s0.2,0.1,0.2,0.1c0.1,0,0.1,0,0.1-0.1s0-0.1,0-0.2h0.1v1h-0.2c-0.2,0-0.3,0-0.5,0c-0.1,0-0.3,0-0.4-0.1c-0.1-0.1-0.3-0.1-0.4-0.3
			c-0.1-0.1-0.3-0.3-0.4-0.5c-0.2,0.3-0.6,0.6-1,0.7c-0.4,0.1-0.8,0.2-1.2,0.2c-0.3,0-0.6,0-0.9-0.1s-0.5-0.1-0.7-0.3
			c-0.2-0.1-0.4-0.3-0.5-0.6c-0.1-0.2-0.2-0.5-0.2-0.9c0-0.2,0-0.4,0.1-0.6c0.1-0.2,0.2-0.4,0.3-0.5c0.1-0.2,0.3-0.3,0.4-0.4
			c0.2-0.1,0.3-0.2,0.5-0.3c-0.2-0.1-0.3-0.3-0.4-0.5c-0.1-0.2-0.2-0.4-0.2-0.6c0-0.3,0.1-0.5,0.2-0.7c0.1-0.2,0.3-0.4,0.4-0.5
			c0.2-0.1,0.4-0.2,0.6-0.3c0.2-0.1,0.5-0.1,0.7-0.1c0.3,0,0.6,0,0.8,0.1c0.2,0.1,0.4,0.2,0.6,0.3c0.2,0.1,0.3,0.3,0.4,0.5
			c0.1,0.2,0.1,0.4,0.1,0.6c0,0.4-0.1,0.6-0.2,0.8c-0.2,0.2-0.4,0.4-0.7,0.5c0.2,0.1,0.4,0.2,0.5,0.4c0.1,0.2,0.2,0.3,0.3,0.5
			c0.2-0.4,0.4-0.7,0.7-1s0.7-0.5,1.1-0.7v1.4H97.2z M91.9,49.4c0,0.4,0.1,0.7,0.4,0.9c0.3,0.2,0.6,0.3,1.1,0.3c0.3,0,0.5,0,0.7-0.1
			c0.2-0.1,0.4-0.2,0.5-0.3c0.1-0.1,0.2-0.2,0.3-0.4c0.1-0.1,0.1-0.3,0.1-0.4c0-0.1,0-0.3-0.1-0.4c-0.1-0.2-0.2-0.3-0.4-0.4
			c-0.1-0.1-0.3-0.2-0.5-0.3c-0.2-0.1-0.4-0.1-0.6-0.1c-0.2,0-0.4,0-0.5,0.1c-0.2,0.1-0.3,0.1-0.5,0.2c-0.1,0.1-0.2,0.2-0.3,0.4
			C91.9,49.1,91.9,49.2,91.9,49.4z M94.6,46.6c0-0.2-0.1-0.4-0.2-0.6c-0.2-0.2-0.4-0.3-0.8-0.3s-0.6,0.1-0.8,0.3
			c-0.2,0.2-0.2,0.4-0.2,0.6c0,0.2,0.1,0.4,0.2,0.6c0.2,0.2,0.4,0.3,0.8,0.3c0.3,0,0.6-0.1,0.8-0.2C94.5,47.1,94.6,46.9,94.6,46.6z"
			/>
		<path class="st0" d="M103.7,51.2c0.1,0,0.2,0,0.3-0.1c0-0.1,0.1-0.1,0.1-0.2l1.8-4.2c0-0.1,0.1-0.2,0.1-0.2s0-0.1-0.1-0.1
			c0,0-0.1,0-0.2-0.1v-0.1h1.9v0.1c-0.1,0-0.1,0-0.2,0c-0.1,0-0.1,0.1-0.1,0.1c0,0,0,0.1,0,0.1s0,0.1,0.1,0.1l2,4.3
			c0,0.1,0.1,0.1,0.1,0.2s0.1,0.1,0.3,0.1v0.1h-1.5v-0.1c0.1,0,0.2,0,0.3,0s0.1-0.1,0.1-0.1c0-0.1,0-0.1,0-0.1s0-0.1,0-0.1l-0.5-1
			h-2.8l-0.4,0.9c0,0.1-0.1,0.1-0.1,0.2s-0.1,0.1-0.1,0.2c0,0,0,0.1,0.1,0.1s0.1,0,0.2,0v0.1h-1.3V51.2z M105.5,49.1h2.3l-1.2-2.5
			L105.5,49.1z"/>
		<path class="st0" d="M116.9,51.5c0-0.1,0-0.1-0.1-0.2s-0.1,0-0.2,0h-4.7v-0.1c0.1,0,0.2,0,0.2-0.1c0,0,0.1-0.1,0.1-0.3v-4.2
			c0-0.1,0-0.2-0.1-0.3c0,0-0.1-0.1-0.2-0.1v-0.1h1.3v0.1c-0.1,0-0.2,0-0.2,0.1c0,0-0.1,0.1-0.1,0.3v4h3.7c0.1,0,0.2,0,0.2-0.1
			s0.1-0.1,0.1-0.3h0.1v1.2H116.9z"/>
		<path class="st0" d="M123.3,47.6C123.4,47.6,123.4,47.5,123.3,47.6l0-0.2c0,0-0.1-0.1-0.2-0.2c-0.1-0.1-0.2-0.1-0.4-0.2
			c-0.2-0.1-0.4-0.1-0.6-0.2c-0.2-0.1-0.4-0.1-0.6-0.1c-0.3,0-0.6,0.1-0.9,0.2c-0.3,0.1-0.5,0.2-0.7,0.4c-0.2,0.2-0.3,0.4-0.4,0.6
			c-0.1,0.2-0.1,0.5-0.1,0.8c0,0.3,0,0.5,0.1,0.8c0.1,0.2,0.2,0.4,0.4,0.6c0.2,0.2,0.4,0.3,0.6,0.4c0.2,0.1,0.5,0.1,0.8,0.1
			c0.3,0,0.6,0,0.8-0.1c0.2-0.1,0.4-0.1,0.6-0.2c0.2-0.1,0.3-0.2,0.4-0.3s0.1-0.2,0.1-0.2c0-0.1,0-0.2,0-0.2l0.1-0.1l0.8,1.1
			l-0.1,0.1c-0.1,0-0.1-0.1-0.1-0.1s-0.1,0-0.1,0c-0.1,0-0.2,0-0.3,0.1c-0.1,0.1-0.3,0.2-0.5,0.3c-0.2,0.1-0.4,0.2-0.7,0.2
			c-0.3,0.1-0.6,0.1-1,0.1c-0.4,0-0.8-0.1-1.1-0.2c-0.3-0.1-0.6-0.3-0.9-0.5c-0.3-0.2-0.5-0.5-0.6-0.8c-0.1-0.3-0.2-0.7-0.2-1.1
			s0.1-0.8,0.2-1.1c0.2-0.3,0.4-0.6,0.6-0.8c0.3-0.2,0.6-0.4,0.9-0.5c0.4-0.1,0.7-0.2,1.1-0.2c0.3,0,0.6,0,0.8,0.1
			c0.2,0,0.4,0.1,0.7,0.2c0.2,0.1,0.3,0.1,0.4,0.2c0.1,0,0.2,0.1,0.2,0.1c0.1,0,0.1,0,0.2-0.1l0.1,0l-0.6,1.2L123.3,47.6z"/>
		<path class="st0" d="M125.8,51.2c0.1,0,0.2,0,0.3-0.1c0-0.1,0.1-0.1,0.1-0.2l1.8-4.2c0-0.1,0.1-0.2,0.1-0.2s0-0.1-0.1-0.1
			c0,0-0.1,0-0.2-0.1v-0.1h1.9v0.1c-0.1,0-0.1,0-0.2,0c-0.1,0-0.1,0.1-0.1,0.1c0,0,0,0.1,0,0.1s0,0.1,0.1,0.1l2,4.3
			c0,0.1,0.1,0.1,0.1,0.2s0.1,0.1,0.3,0.1v0.1h-1.5v-0.1c0.1,0,0.2,0,0.3,0s0.1-0.1,0.1-0.1c0-0.1,0-0.1,0-0.1s0-0.1,0-0.1l-0.5-1
			h-2.8l-0.4,0.9c0,0.1-0.1,0.1-0.1,0.2s-0.1,0.1-0.1,0.2c0,0,0,0.1,0.1,0.1s0.1,0,0.2,0v0.1h-1.3V51.2z M127.6,49.1h2.3l-1.2-2.5
			L127.6,49.1z M128.1,45.5l1.3-1.6h0.9l-1.6,1.6H128.1z"/>
		<path class="st0" d="M134,51.2c0.1,0,0.2,0,0.3-0.1c0,0,0.1-0.1,0.1-0.3v-4.2c0-0.1,0-0.2-0.1-0.3c0,0-0.1-0.1-0.3-0.1v-0.1h1.7
			v0.1c-0.1,0-0.2,0-0.3,0c0,0-0.1,0-0.1,0.1c0,0,0,0.1,0.1,0.2l3.2,3.6v-3.6c0-0.1,0-0.2-0.1-0.3c0,0-0.1-0.1-0.3-0.1v-0.1h1.3v0.1
			c-0.1,0-0.2,0-0.3,0.1c0,0-0.1,0.1-0.1,0.3v4.2c0,0.1,0,0.2,0.1,0.3c0,0,0.1,0.1,0.3,0.1v0.1h-1.6v-0.1c0.2,0,0.2,0,0.3,0
			c0,0,0,0,0-0.1s0-0.1,0-0.1s-0.1-0.1-0.1-0.1l-3.3-3.8v3.8c0,0.1,0,0.2,0.1,0.3c0,0,0.1,0.1,0.3,0.1v0.1H134V51.2z"/>
		<path class="st0" d="M147,47.1c0-0.1,0-0.2-0.1-0.2s-0.1-0.1-0.2-0.1h-1.8v4c0,0.1,0,0.2,0.1,0.3c0,0,0.1,0.1,0.2,0.1v0.1h-1.4
			v-0.1c0.1,0,0.2,0,0.2-0.1c0,0,0.1-0.1,0.1-0.3v-4h-1.8c-0.1,0-0.2,0-0.2,0.1S142,47,142,47.1h-0.1v-1.2h0.1c0,0.1,0,0.2,0.1,0.2
			s0.1,0.1,0.2,0.1h4.4c0.1,0,0.2,0,0.2-0.1s0.1-0.1,0.1-0.2h0.1v1.2H147z"/>
		<path class="st0" d="M148.6,51.2c0.1,0,0.2,0,0.3-0.1c0-0.1,0.1-0.1,0.1-0.2l1.8-4.2c0-0.1,0.1-0.2,0.1-0.2s0-0.1-0.1-0.1
			c0,0-0.1,0-0.2-0.1v-0.1h1.9v0.1c-0.1,0-0.1,0-0.2,0c-0.1,0-0.1,0.1-0.1,0.1c0,0,0,0.1,0,0.1s0,0.1,0.1,0.1l2,4.3
			c0,0.1,0.1,0.1,0.1,0.2s0.1,0.1,0.3,0.1v0.1h-1.5v-0.1c0.1,0,0.2,0,0.3,0s0.1-0.1,0.1-0.1c0-0.1,0-0.1,0-0.1s0-0.1,0-0.1l-0.5-1
			h-2.8l-0.4,0.9c0,0.1-0.1,0.1-0.1,0.2s-0.1,0.1-0.1,0.2c0,0,0,0.1,0.1,0.1s0.1,0,0.2,0v0.1h-1.3V51.2z M150.4,49.1h2.3l-1.2-2.5
			L150.4,49.1z"/>
		<path class="st0" d="M157.8,50.8c0,0.1,0,0.2,0.1,0.3c0,0,0.1,0.1,0.2,0.1v0.1h-1.3v-0.1c0.1,0,0.2,0,0.2-0.1c0,0,0.1-0.1,0.1-0.3
			v-4.2c0-0.1,0-0.2-0.1-0.3c0,0-0.1-0.1-0.2-0.1v-0.1h3.6c0.5,0,0.9,0.1,1.1,0.4c0.2,0.3,0.4,0.6,0.4,1.1c0,0.5-0.1,0.8-0.4,1
			c-0.2,0.2-0.6,0.4-1,0.4l1.3,2c0.1,0.1,0.1,0.1,0.1,0.2c0,0,0.1,0,0.2,0v0.1h-1.3v-0.1c0.1,0,0.1,0,0.2,0s0,0,0-0.1s0-0.1,0-0.1
			s-0.1-0.1-0.1-0.2l-1.1-1.8h-1.8V50.8z M160.3,48.3c0.3,0,0.5-0.1,0.6-0.2s0.2-0.3,0.2-0.6c0-0.3-0.1-0.5-0.2-0.6
			c-0.1-0.1-0.4-0.2-0.7-0.2h-2.4v1.6H160.3z"/>
		<path class="st0" d="M164,51.2c0.1,0,0.2,0,0.3-0.1c0-0.1,0.1-0.1,0.1-0.2l1.8-4.2c0-0.1,0.1-0.2,0.1-0.2s0-0.1-0.1-0.1
			c0,0-0.1,0-0.2-0.1v-0.1h1.9v0.1c-0.1,0-0.1,0-0.2,0c-0.1,0-0.1,0.1-0.1,0.1c0,0,0,0.1,0,0.1s0,0.1,0.1,0.1l2,4.3
			c0,0.1,0.1,0.1,0.1,0.2s0.1,0.1,0.3,0.1v0.1h-1.5v-0.1c0.1,0,0.2,0,0.3,0s0.1-0.1,0.1-0.1c0-0.1,0-0.1,0-0.1s0-0.1,0-0.1l-0.5-1
			h-2.8l-0.4,0.9c0,0.1-0.1,0.1-0.1,0.2s-0.1,0.1-0.1,0.2c0,0,0,0.1,0.1,0.1s0.1,0,0.2,0v0.1H164V51.2z M165.8,49.1h2.3l-1.2-2.5
			L165.8,49.1z"/>
	</g>
</g>
<g>
	<path d="M41.4,64.2l1,3.7h-0.6L41.6,67h-1.1l-0.2,0.9h-0.6l1.1-3.7H41.4z M41.4,66.5L41,64.8l-0.4,1.7H41.4z"/>
	<path d="M48.8,64.2v0.5H48v3.1h-0.6v-3.1h-0.8v-0.5H48.8z"/>
	<path d="M55.3,64.2v0.5h-0.8v3.1h-0.6v-3.1h-0.8v-0.5H55.3z"/>
	<path d="M62.5,66.1c0,0.8-0.2,1.9-1.3,1.9c-1.1,0-1.3-1-1.3-1.9c0-0.8,0.2-1.9,1.3-1.9C62.3,64.2,62.5,65.2,62.5,66.1z M60.6,65
		c-0.1,0.3-0.1,0.8-0.1,1c0,0.2,0,0.7,0.1,1c0.1,0.2,0.2,0.4,0.5,0.4c0.3,0,0.4-0.2,0.5-0.4c0.1-0.3,0.1-0.8,0.1-1
		c0-0.3,0-0.7-0.1-1c-0.1-0.2-0.2-0.4-0.5-0.4C60.8,64.7,60.7,64.8,60.6,65z"/>
	<path d="M68.6,64.2c0.3,0,0.6,0,0.8,0.2c0.2,0.1,0.4,0.4,0.4,0.9c0,0.7-0.4,0.9-0.6,1l0.7,1.7h-0.7l-0.6-1.5h-0.6v1.5h-0.6v-3.7
		H68.6z M68.1,64.7v1.2h0.5c0.4,0,0.6-0.3,0.6-0.6c0-0.6-0.5-0.6-0.6-0.6H68.1z"/>
	<path d="M75.4,64.2l1.2,2.6v-2.6h0.5v3.7h-0.6L75.2,65v2.9h-0.5v-3.7H75.4z"/>
	<path d="M84.3,64.2v0.5h-1.5v1.1H84v0.5h-1.2v1.1h1.5v0.5h-2.1v-3.7H84.3z"/>
	<path d="M89.3,64.2l0.7,1.5l0.7-1.5h0.6l-1,2.1v1.5h-0.6v-1.5l-1-2.1H89.3z"/>
	<path d="M97.5,65.2c-0.1-0.3-0.3-0.6-0.6-0.6c-0.4,0-0.5,0.3-0.5,0.5c0,0.3,0.3,0.4,0.7,0.6c0.4,0.2,1,0.4,1,1.1
		c0,0.5-0.4,1.1-1.2,1.1c-1,0-1.2-0.8-1.3-1l0.5-0.2c0,0.2,0.1,0.7,0.7,0.7c0.5,0,0.6-0.4,0.6-0.5c0-0.3-0.3-0.5-0.6-0.6
		c-0.4-0.2-0.6-0.2-0.8-0.4c-0.2-0.1-0.3-0.4-0.3-0.7c0-0.5,0.4-1,1.1-1c0.9,0,1.1,0.6,1.1,0.9L97.5,65.2z"/>
	<path d="M110.2,64.2l1,3.7h-0.6l-0.2-0.9h-1.1l-0.2,0.9h-0.6l1.1-3.7H110.2z M110.2,66.5l-0.4-1.7l-0.4,1.7H110.2z"/>
	<path d="M117.6,64.2v0.5h-0.8v3.1h-0.6v-3.1h-0.8v-0.5H117.6z"/>
	<path d="M128.6,64.2v3.2h1.3v0.5H128v-3.7H128.6z"/>
	<path d="M136,64.2l1,3.7h-0.6l-0.2-0.9h-1.1l-0.2,0.9h-0.6l1.1-3.7H136z M136.1,66.5l-0.4-1.7l-0.4,1.7H136.1z"/>
	<path d="M142,64.2l0.5,2.7l0.6-2.7h0.5l0.6,2.7l0.5-2.7h0.5l-0.8,3.7h-0.5l-0.6-2.7l-0.6,2.7h-0.6l-0.8-3.7H142z"/>
</g>
<line class="st1" x1="9.7" y1="57" x2="179.7" y2="57"/>
<g>
	<g>
		<g>
			<path d="M107.3,30.4l-0.1,5.7H90.8v-0.7h0.6c0.8,0,1.4-0.1,1.7-0.3c0.3-0.2,0.5-0.5,0.6-1c0.1-0.4,0.1-1.5,0.1-3.1v-9.5
				c0-1.5,0-2.5-0.1-3c-0.1-0.4-0.3-0.8-0.6-0.9c-0.3-0.2-0.9-0.3-1.9-0.3h-0.4v-0.7h9.3v0.7h-0.9c-0.9,0-1.6,0.1-1.9,0.2
				c-0.3,0.2-0.5,0.4-0.6,0.9c-0.1,0.4-0.1,1.4-0.1,3v10.1c0,1.4,0,2.3,0.1,2.6c0.1,0.4,0.3,0.6,0.6,0.8c0.3,0.2,1.1,0.3,2.2,0.3
				h1.5c1.2,0,2.1-0.1,2.6-0.3s1.1-0.7,1.6-1.4s1-1.8,1.4-3.3H107.3z"/>
			<path d="M120.8,33.9h0.5c-0.1,1.6-0.9,2.4-2.4,2.4c-0.6,0-1.2-0.2-1.5-0.5c-0.4-0.3-0.6-0.8-0.7-1.5c-0.9,0.7-1.8,1.2-2.6,1.5
				c-0.8,0.3-1.5,0.5-2.1,0.5c-0.8,0-1.5-0.2-2-0.7c-0.6-0.5-0.9-1.1-0.9-1.8c0-1,0.5-1.8,1.4-2.6c1-0.7,2.3-1.4,4-2.1l2.2-0.9v-0.6
				c0-0.8-0.1-1.4-0.2-1.8c-0.1-0.4-0.4-0.7-0.8-1c-0.4-0.3-1-0.4-1.7-0.4c-1.4,0-2.2,0.5-2.4,1.4c-0.2,1-0.5,1.5-1.2,1.5
				c-0.6,0-0.9-0.3-0.9-0.8c0-0.5,0.4-1.1,1.2-1.7s2-0.9,3.6-0.9c1.2,0,2.1,0.2,2.8,0.6c0.7,0.4,1.1,0.8,1.3,1.3
				c0.2,0.5,0.3,1.2,0.3,2.2v4.7c0,1.1,0.1,1.8,0.2,2.1c0.1,0.3,0.4,0.5,0.7,0.5C120.3,35.3,120.7,34.8,120.8,33.9z M116.7,28.9
				l-1.6,0.6c-2.4,1-3.7,2.2-3.7,3.8c0,0.6,0.2,1.1,0.5,1.4c0.3,0.4,0.7,0.5,1.2,0.5c0.4,0,1-0.1,1.6-0.4c0.6-0.3,1.2-0.7,2-1.3
				V28.9z"/>
			<path d="M134.9,36.5h-0.6l-3.5-9.3l-3.5,9.3h-0.6l-3.6-9.3c-0.4-1.1-0.7-1.7-0.9-1.9c-0.2-0.2-0.6-0.3-1.2-0.3v-0.7h5.3V25
				c-0.6,0-1,0.1-1.2,0.2c-0.2,0.1-0.3,0.3-0.3,0.6c0,0.2,0.2,0.7,0.6,1.7l2.4,6.2l3.6-9.3h0.6l3.5,9.3l2.6-6.6
				c0.3-0.7,0.4-1.1,0.4-1.3c0-0.5-0.5-0.7-1.4-0.8v-0.7h3.8V25c-0.5,0-0.8,0.1-1.1,0.3c-0.3,0.2-0.5,0.5-0.7,1.1l-0.3,0.8
				L134.9,36.5z"/>
		</g>
	</g>
	<g>
		<path d="M84.1,34.9c-0.3-0.3-0.6-0.6-0.8-1.1l-0.8-2l-6.1-15.3h-0.5l-5.3,13.4c-0.4,1-0.6,1.5-0.6,1.6c-0.6,1.5-1,2.5-1.4,3
			s-1,0.8-1.8,0.9v0.7h5.4v-0.7c-0.6,0-1.1-0.1-1.4-0.4c-0.4-0.3-0.6-0.7-0.6-1.3c0-0.5,0.3-1.7,1-3.5l0.5-1.2h0l0.2-0.6h0l3.2-8.2
			l3.2,8.2h0l0.3,0.6h0l1.4,3.6c0.4,1,0.6,1.7,0.6,1.9c0,0.4-0.2,0.7-0.5,0.8c-0.3,0.1-0.9,0.2-1.8,0.2v0.7h7.2v-0.7
			C84.9,35.3,84.4,35.2,84.1,34.9z"/>
	</g>
	<g>
		<path class="st2" d="M66.3,17.3c0.2-0.5,0.3-1.1,0.3-1.8c0-1.2-0.3-2.2-0.9-3c-0.6-0.7-2-1.1-4.1-1.1c-0.3,0-0.7,0-1.1,0.1v8
			c0.7,0,1.4,0,2.1-0.1c0.7,0,1.3-0.1,1.8-0.3c0.5-0.2,0.9-0.4,1.3-0.7C65.9,18.2,66.1,17.8,66.3,17.3z"/>
		<path d="M71.2,27.1c-0.8-0.6-1.8-1.7-3.2-3.5c-1.7-2.2-2.9-3.5-3.6-3.8c1.7-0.2,3-0.7,3.8-1.5c0.9-0.8,1.3-1.8,1.3-2.9
			c0-1-0.3-1.8-1-2.5c-0.7-0.7-1.5-1.2-2.6-1.5c-1.1-0.3-2.5-0.5-4.2-0.5c-1,0-2.4,0-4.1,0.1L55,11v0.6h0.3c0.9,0,1.5,0.1,1.8,0.2
			c0.3,0.2,0.5,0.4,0.5,0.8c0.1,0.4,0.1,1.3,0.1,2.7V24c0,1.5,0,2.4-0.1,2.8c-0.1,0.4-0.3,0.7-0.6,0.9c-0.1,0.1-0.2,0.1-0.3,0.1v0.7
			h6.7v-0.6h-0.9c-0.8,0-1.4-0.1-1.7-0.3c-0.3-0.2-0.5-0.5-0.5-0.9c-0.1-0.4-0.1-1.3-0.1-2.7v-3.9h0.7c0.5,0,0.8,0.1,1.1,0.2
			c0.2,0.2,0.7,0.6,1.3,1.3c0.6,0.7,1.2,1.5,1.8,2.3c1.8,2.5,3.1,4,3.9,4.6H74v-0.6C72.9,27.9,72,27.6,71.2,27.1z M62.4,19.4
			c-0.7,0-1.4,0.1-2.1,0.1v-8c0.4,0,0.8-0.1,1.1-0.1c2.1,0,3.5,0.4,4.1,1.1c0.6,0.7,0.9,1.7,0.9,3c0,0.7-0.1,1.3-0.3,1.8
			c-0.2,0.5-0.4,0.9-0.8,1.2c-0.3,0.3-0.7,0.5-1.3,0.7C63.7,19.3,63.1,19.4,62.4,19.4z"/>
	</g>
	<path class="st0" d="M68.8,28.8c-12.8-0.1-20.1,0.7-20.1,0.7S55.1,26.9,70,27c14.9,0.1,20.8-1.2,20.8-1.2S81.6,28.9,68.8,28.8z"/>
</g>
</svg>
